<?xml version="1.0" encoding="utf-8"?>
<!-- Generator: Adobe Illustrator 16.0.4, SVG Export Plug-In . SVG Version: 6.00 Build 0)  -->
<!DOCTYPE svg PUBLIC "-//W3C//DTD SVG 1.1//EN" "http://www.w3.org/Graphics/SVG/1.1/DTD/svg11.dtd">
<svg version="1.1" id="Layer_1" xmlns="http://www.w3.org/2000/svg" xmlns:xlink="http://www.w3.org/1999/xlink" x="0px" y="0px"
	 width="500px" height="388.373px" viewBox="0 0 500 388.373" enable-background="new 0 0 500 388.373" xml:space="preserve">
<g>
	<path fill="#D1D3D4" d="M200.58,0v28.488c-40.313,14.733-71.905,37.895-94.767,69.477c-22.872,31.593-34.301,64.442-34.301,98.547
		c0,7.372,1.163,12.789,3.488,16.279c1.547,2.325,3.291,3.488,5.233,3.488c1.929,0,4.837-1.349,8.721-4.07
		c12.395-8.907,28.092-13.373,47.093-13.373c22.092,0,41.662,9.011,58.72,27.035c17.046,18.023,25.582,39.442,25.582,64.243
		c0,25.979-9.792,48.838-29.361,68.605c-19.581,19.766-43.313,29.652-71.219,29.652c-32.56,0-60.664-13.373-84.304-40.117
		C11.813,321.51,0,285.662,0,240.698C0,188.373,16.081,141.477,48.256,100C80.419,58.535,131.198,25.198,200.58,0z M480.231,0
		v28.488c-40.313,14.733-71.907,37.895-94.767,69.477c-22.872,31.593-34.302,64.442-34.302,98.547
		c0,7.372,1.161,12.789,3.487,16.279c1.547,2.325,3.29,3.488,5.232,3.488c1.931,0,4.837-1.349,8.72-4.07
		c12.396-8.907,28.095-13.373,47.094-13.373c22.095,0,41.664,9.011,58.722,27.035C491.465,243.895,500,265.314,500,290.115
		c0,25.979-9.792,48.838-29.361,68.605c-19.581,19.766-43.313,29.652-71.222,29.652c-32.558,0-60.662-13.373-84.301-40.117
		c-23.651-26.746-35.465-62.594-35.465-107.558c0-52.325,16.08-99.221,48.254-140.698C360.07,58.535,410.847,25.198,480.231,0z"/>
</g>
</svg>
